<svg xmlns="http://www.w3.org/2000/svg" viewBox="0 0 60 72.39"><defs><style>.cls-1{fill:#fff;}</style></defs><title>dandelion</title><g id="レイヤー_2" data-name="レイヤー 2"><g id="レイヤー_1-2" data-name="レイヤー 1"><path class="cls-1" d="M58.58,27.49a85.17,85.17,0,0,0-9.52,1.45A75.47,75.47,0,0,0,35.51,33a54.82,54.82,0,0,1,13.6-11.73,40.76,40.76,0,0,1,5.9-3c.72-.29,1.29-.48,1.66-.6l.43-.14.1,0h0A1.32,1.32,0,1,0,56.56,15c-.16,0-12.11,3.16-23.38,16.71l.09-.73A37.88,37.88,0,0,1,46.84,9.46c.72-.56,1.32-1,1.73-1.24l.46-.3.12-.06,0,0h0a1.32,1.32,0,1,0-1.3-2.29,35.42,35.42,0,0,0-8.44,7.39,41,41,0,0,0-5.67,8.66C33.46,6.71,27.54.56,27.35.39a1.32,1.32,0,1,0-1.87,1.86c.16.18,5.67,5.95,5.68,20.57,0,1.64-.09,3.41-.24,5.27a46.45,46.45,0,0,0-8-16,41.84,41.84,0,0,0-8.27-8.27A1.31,1.31,0,1,0,13.12,6l0,0a40.54,40.54,0,0,1,8,8.19,43.4,43.4,0,0,1,7.88,17.58A71.91,71.91,0,0,0,3.6,12.05a1.31,1.31,0,0,0-1.71.72,1.32,1.32,0,0,0,.72,1.72h0A69.82,69.82,0,0,1,26.56,32.88,75.76,75.76,0,0,0,1.37,26.29a1.32,1.32,0,0,0-.11,2.64H1.4a74.32,74.32,0,0,1,23.92,6.28,89.37,89.37,0,0,0-10,1c-2.12.34-4.14.74-5.92,1.2A23.38,23.38,0,0,0,4.91,39a1.32,1.32,0,1,0,1.18,2.36,21.15,21.15,0,0,1,4-1.36A80.82,80.82,0,0,1,28,37.78h1.16A100.35,100.35,0,0,1,27.27,52.4c-.28,1.37-.57,2.71-.88,4-2.24.91-3.11,4.31-3.75,6.87-.83,3.29-2,8,2,9s5.18-3.69,6-7c.69-2.71,1.61-6.38-.34-8.14.31-1.28.6-2.6.87-4a104.26,104.26,0,0,0,2-15.4h.95a60.45,60.45,0,0,1,10.71,1,35,35,0,0,1,8.55,2.52A1.32,1.32,0,1,0,54.49,39a37.51,37.51,0,0,0-9.25-2.74,64.88,64.88,0,0,0-8.23-1,74.71,74.71,0,0,1,12.58-3.73c2.67-.55,5-.9,6.62-1.11.81-.1,1.46-.18,1.9-.22l.51-.05h.16a1.32,1.32,0,1,0-.2-2.63Z"/></g></g></svg>